<svg id="Layer_6" data-name="Layer 6" xmlns="http://www.w3.org/2000/svg" viewBox="0 0 91.73 17.91"><defs><style>.cls-1{fill:#004987;}.cls-2{fill:#ffcd00;}.cls-3,.cls-4{fill:#003567;}.cls-4{stroke:#003567;stroke-miterlimit:10;stroke-width:0.1px;}</style></defs><path class="cls-1" d="M25.34,6.86c4.21-.41,8.36-.66,12.2-.73l1-5.8H33.25L32.26,6H25.94l1-5.64H21.69L21.1,3.67C23.11,3.88,25,4.8,25.34,6.86Z"/><path class="cls-1" d="M15,8.16A4.88,4.88,0,0,1,15,7.43c0-2.81,2.69-3.81,5.22-3.81h0L20.75.33H15.44L14.45,6H8.14l1-5.64H3.88L2,10.71C6,9.72,10.45,8.86,15,8.16Z"/><path class="cls-1" d="M15.15,8.74c-4.66.72-9.17,1.6-13.22,2.61L.83,17.57H6.09l1.22-6.9h6.31l-1.22,6.9h5.32l1.12-6.35C17.51,11,15.76,10.43,15.15,8.74Z"/><path class="cls-1" d="M25.39,7.45v.06c0,2.82-2.7,3.82-5.22,3.82h-.43l-1.1,6.25H23.9l1.21-6.9h6.32l-1.22,6.9h5.32L37.44,6.73C33.63,6.8,29.55,7.05,25.39,7.45Z"/><path class="cls-2" d="M24.74,6.92c-.38-2.39-3.38-2.7-4.57-2.7s-4.62.35-4.62,3.21a3.24,3.24,0,0,0,.06.64C18.63,7.61,21.7,7.22,24.74,6.92Z"/><path class="cls-1" d="M15.76,8.65c.76,1.82,3.33,2.08,4.41,2.08,1.27,0,4.62-.35,4.62-3.21C21.78,7.82,18.75,8.2,15.76,8.65Z"/><path class="cls-1" d="M37,16.57h-.37v1h-.23v-1h-.36v-.19h1Zm.9.65.32-.84h.33v1.19h-.22v-.93h0l-.35.93h-.17l-.35-.93h0v.93h-.21V16.38h.33Z"/><path class="cls-3" d="M47.16,5.38a1.23,1.23,0,0,1-.43-.14,1.46,1.46,0,0,0-.55-.1c-1.06,0-1.27,1.09-1.45,2.66v.1H46c.13,0,.14,0,.1.27s-.11.24-.52.22l-.93-.05-.36,3.31c-.2,1.84-1.06,3-2.05,3-.44,0-.61-.12-.6-.32,0-.36.15-.56.35-.56a.6.6,0,0,1,.29.12.57.57,0,0,0,.31.1c.44,0,.76-.53.9-1.85l.38-3.57a.2.2,0,0,0-.2-.26l-.35,0c-.12,0-.12,0-.09-.14s.25-.21.6-.21H44c.16-1.48.91-3.5,2.69-3.5.73,0,.85,0,.84.24S47.29,5.38,47.16,5.38Z"/><path class="cls-3" d="M48.75,12c-.38,0-.48-.17-.48-.51a4.09,4.09,0,0,1,.08-.76c0-.07-.07-.09-.1,0-.33.52-1,1.33-1.62,1.33s-1.07-.5-1.07-1.37a3.17,3.17,0,0,1,.77-2.1,1.9,1.9,0,0,1,1.5-.82,2.57,2.57,0,0,1,.82.11c.29.1.35.1.42,0s.27-.24.42-.15.1.11,0,.43A8.3,8.3,0,0,0,49,10.93c0,.46.06.51.17.51s.3-.17.56-.48c.07-.06.23.14.19.2C49.55,11.67,49.14,12,48.75,12ZM47.62,8.31c-.64,0-1.22.77-1.22,2.21,0,.59.22.86.59.86.71,0,1.49-1.69,1.49-2.54C48.48,8.42,48.05,8.31,47.62,8.31Z"/><path class="cls-3" d="M52.58,8.84c-.19,0-.24-.08-.36-.25a.88.88,0,0,0-.79-.45c-.42,0-.64.25-.64.49s.09.41.6.75c.9.64,1.16.86,1.16,1.36,0,.78-.69,1.33-1.71,1.33s-1.27-.26-1.27-.61c0-.5,0-.62.23-.62s.28.06.41.29a1,1,0,0,0,.88.52c.39,0,.67-.17.67-.53s-.13-.49-.66-.86c-.81-.54-1-.81-1-1.25a1.42,1.42,0,0,1,1.57-1.28c1,0,1.28.18,1.23.48C52.78,8.72,52.75,8.84,52.58,8.84Z"/><path class="cls-3" d="M55.15,8.38l-.7-.05c-.09.53-.18,1-.24,1.29A10.9,10.9,0,0,0,54,11.23c0,.2.06.27.25.27s.48-.1,1-.54c0-.05.22.16.17.24a2.14,2.14,0,0,1-1.51.84c-.51,0-.68-.22-.68-.6,0-.19.09-.64.19-1.25l.32-1.73c0-.11,0-.18-.17-.19h-.3c-.09,0-.11,0-.08-.14s.21-.21.59-.21h0a3.87,3.87,0,0,0,.11-.61,1,1,0,0,1,.51-.72c.25-.09.42-.07.39,0s-.12.69-.24,1.27h1c.13,0,.15,0,.12.27S55.54,8.4,55.15,8.38Z"/><path class="cls-3" d="M63.93,8.84c-.19,0-.24-.08-.36-.25a.87.87,0,0,0-.79-.45c-.42,0-.64.25-.64.49s.09.41.6.75c.9.64,1.16.86,1.16,1.36,0,.78-.69,1.33-1.71,1.33s-1.27-.26-1.27-.61c0-.5.06-.62.23-.62s.28.06.41.29a1,1,0,0,0,.88.52c.39,0,.67-.17.67-.53s-.13-.49-.66-.86c-.81-.54-1-.81-1-1.25A1.42,1.42,0,0,1,63,7.73c1,0,1.28.18,1.23.48C64.13,8.72,64.1,8.84,63.93,8.84Z"/><path class="cls-3" d="M65.06,10.29c0,1,.31,1.27.77,1.27a1.77,1.77,0,0,0,1-.36c.15-.1.19-.1.28,0a.2.2,0,0,1,0,.34,2.61,2.61,0,0,1-1.62.56c-.77,0-1.32-.43-1.32-1.61a2.46,2.46,0,0,1,2.28-2.7c.76,0,1.13.33,1.13.82C67.61,9.33,66.91,9.78,65.06,10.29Zm1.2-2.1c-.54,0-1.08.69-1.18,1.75,1.24-.4,1.66-.74,1.66-1.23C66.74,8.39,66.6,8.19,66.26,8.19Z"/><path class="cls-3" d="M71,8.86c-.17,0-.51-.24-.75-.24s-1,1-1.26,2.34l-.17.78c0,.14-.18.24-.46.26s-.31,0-.28-.17a19.14,19.14,0,0,0,.53-3.11c0-.27-.06-.36-.16-.36s-.31.17-.59.49c-.07.05-.23-.14-.17-.22a1.82,1.82,0,0,1,1.2-.86c.37,0,.46.14.46.49a6,6,0,0,1-.11.79s.06.08.11,0c.33-.53,1-1.33,1.7-1.33.39,0,.47.09.35.48C71.25,8.78,71.17,8.86,71,8.86Z"/><path class="cls-3" d="M73.52,12a1.11,1.11,0,0,1-1.26-1.13,4.52,4.52,0,0,1,1.06-2.38s0-.07,0-.07c-1,0-1.13.1-1.13.22s0,.33,0,.38-.25.07-.3,0a2.14,2.14,0,0,1-.33-.84c0-.15.15-.3.45-.33a16.65,16.65,0,0,1,1.75-.09c.24,0,.33,0,.17.32a4.76,4.76,0,0,0-.85,2.4c0,.56.28.86.81.86.87,0,1.65-1.35,1.65-2.43,0-.22-.77-.21-.77-.67,0-.28.18-.52.62-.52a.62.62,0,0,1,.64.68C76.05,10.19,75,12,73.52,12Z"/><path class="cls-3" d="M76.92,10.29c0,1,.32,1.27.78,1.27a1.76,1.76,0,0,0,1-.36c.15-.1.2-.1.29,0a.2.2,0,0,1,0,.34,2.66,2.66,0,0,1-1.63.56c-.76,0-1.32-.43-1.32-1.61a2.46,2.46,0,0,1,2.28-2.7c.76,0,1.14.33,1.14.82C79.48,9.33,78.78,9.78,76.92,10.29Zm1.2-2.1c-.53,0-1.08.69-1.18,1.75,1.25-.4,1.66-.74,1.66-1.23C78.6,8.39,78.46,8.19,78.12,8.19Z"/><path class="cls-3" d="M57.82,12.46a2,2,0,0,1-1.76-.91.26.26,0,1,1,.44-.29,1.55,1.55,0,0,0,1.32.67A2.44,2.44,0,0,0,60.11,10a.25.25,0,0,1,.3-.22.27.27,0,0,1,.22.31A3,3,0,0,1,57.82,12.46Z"/><polygon class="cls-3" points="60.88 10.18 60.51 9.25 59.81 10.18 60.88 10.18"/><path class="cls-3" d="M60.92,10.21H59.75l.76-1,0,0Zm-1.06-.05h1l-.34-.85Z"/><path class="cls-3" d="M56,10.29H56a.27.27,0,0,1-.21-.31,3,3,0,0,1,2.81-2.39,2,2,0,0,1,1.83,1,.27.27,0,0,1-.47.26,1.48,1.48,0,0,0-1.36-.75,2.44,2.44,0,0,0-2.29,2A.26.26,0,0,1,56,10.29Z"/><polygon class="cls-3" points="55.52 9.87 55.89 10.79 56.59 9.87 55.52 9.87"/><path class="cls-3" d="M55.88,10.85l-.4-1h1.16l0,0Zm-.32-1,.34.85.64-.85Z"/><path class="cls-3" d="M58,11.28a1,1,0,0,1-.82-.37A1.07,1.07,0,0,1,57,10a1.37,1.37,0,0,1,.5-.85.23.23,0,1,1,.29.35,1,1,0,0,0-.34.57.58.58,0,0,0,.59.73A1,1,0,0,0,59,10a.63.63,0,0,0-.13-.54.23.23,0,0,1,0-.32.25.25,0,0,1,.33,0,1.09,1.09,0,0,1,.23.91A1.45,1.45,0,0,1,58,11.28Z"/><path class="cls-3" d="M58.16,10.36h0a.23.23,0,0,1-.18-.27l.22-1.27a.23.23,0,0,1,.45.08l-.23,1.27A.22.22,0,0,1,58.16,10.36Z"/><path class="cls-3" d="M79.57,7.83a.23.23,0,0,1-.23-.23.23.23,0,0,1,.23-.23.24.24,0,0,1,.23.23A.23.23,0,0,1,79.57,7.83Zm0-.43a.2.2,0,1,0,.2.2A.2.2,0,0,0,79.57,7.4Zm.11.32s-.08,0-.12-.11h0v.08h0V7.51l0,0h0a0,0,0,0,1,0,0s0,0,.09,0,.09,0,.09.07,0,0-.06.06.06.1.08.1h0Zm-.12-.23s0,0,0,0v.08s.07,0,.07,0S79.59,7.49,79.56,7.49Z"/><path class="cls-3" d="M86,10.21H84.31v1.06h2v.82H83.24V7.65H86.3v.83h-2v.93H86Z"/><path class="cls-3" d="M90.21,7.65v2.91a1.65,1.65,0,0,1-.21.85,1.36,1.36,0,0,1-.61.55,2,2,0,0,1-.92.19,1.83,1.83,0,0,1-1.28-.42,1.51,1.51,0,0,1-.48-1.15V7.65h1.08V10.6c0,.49.24.73.68.73a.63.63,0,0,0,.5-.19.87.87,0,0,0,.17-.59V7.65Z"/><rect class="cls-4" x="78.63" y="9.85" width="5.49" height="0.18" transform="translate(71.44 91.32) rotate(-90)"/></svg>