<svg id="Layer_7" data-name="Layer 7" xmlns="http://www.w3.org/2000/svg" viewBox="0 0 50 50"><path d="M36.22,40.4H13.79v1.39c0,.89,0,1.79,0,2.68a2.64,2.64,0,0,1-2.59,2.87,19.12,19.12,0,0,1-3.21,0,2.66,2.66,0,0,1-2.57-3c0-1.44,0-2.88,0-4.32A.8.8,0,0,0,5,39.3a5.36,5.36,0,0,1-2.41-4.72q0-13.09,0-26.2A5.59,5.59,0,0,1,7,2.79,6.3,6.3,0,0,1,8.61,2.6H41.4a5.64,5.64,0,0,1,5.79,4.35,5.86,5.86,0,0,1,.2,1.56q0,13,0,26a5.56,5.56,0,0,1-2.45,4.89,1,1,0,0,0-.33.66c0,1.42,0,2.84,0,4.26a2.79,2.79,0,0,1-3.1,3.11H39.17a2.75,2.75,0,0,1-3-3C36.21,43.1,36.22,41.78,36.22,40.4Zm1.55-18.23c-.05-.18-.08-.32-.13-.46q-1-2.88-1.93-5.74a2.86,2.86,0,0,0-3.1-2.2H17.44A2.89,2.89,0,0,0,14.27,16c-.64,1.89-1.28,3.79-1.91,5.68,0,.14-.07.29-.11.45ZM11,27.78a2.81,2.81,0,1,0,0,5.62,2.81,2.81,0,1,0,0-5.62Zm30.85,2.79A2.81,2.81,0,1,0,39,33.4,2.71,2.71,0,0,0,41.82,30.57Z"/></svg>